<?xml version="1.0" standalone="no"?>
<!DOCTYPE svg PUBLIC "-//W3C//DTD SVG 20010904//EN"
 "http://www.w3.org/TR/2001/REC-SVG-20010904/DTD/svg10.dtd">
<svg version="1.0" xmlns="http://www.w3.org/2000/svg"
 width="512.000000pt" height="512.000000pt" viewBox="0 0 512.000000 512.000000"
 preserveAspectRatio="xMidYMid meet">

<g transform="translate(0.000000,512.000000) scale(0.100000,-0.100000)"
fill="#0F172A" stroke="none">
<path d="M872 4007 c-61 -62 -112 -116 -112 -121 0 -5 70 -80 156 -166 l156
-158 -33 -18 c-64 -32 -106 -73 -140 -136 l-34 -63 0 -785 0 -785 23 -43 c34
-63 93 -124 154 -158 l53 -29 1007 -5 1008 -5 390 -390 390 -390 117 118 118
117 -1565 1565 c-861 861 -1567 1565 -1570 1565 -3 0 -56 -51 -118 -113z
m1102 -1344 c144 -142 263 -261 264 -265 2 -5 -39 -8 -92 -8 l-96 0 0 -170 0
-170 -175 0 -175 0 0 170 0 170 -165 0 -165 0 0 170 0 170 165 0 165 0 0 95
c0 52 3 95 7 95 4 0 124 -116 267 -257z"/>
<path d="M3036 2569 l1011 -1011 34 17 c64 33 106 74 140 137 l34 63 0 785 0
785 -29 53 c-34 61 -95 120 -158 154 l-43 23 -1000 3 -1000 2 1011 -1011z
m545 489 c94 -28 169 -135 168 -238 0 -143 -94 -246 -232 -257 -80 -7 -150 21
-205 81 -97 106 -95 249 6 351 68 69 166 93 263 63z"/>
</g>
</svg>
